<?xml version="1.0" encoding="UTF-8"?>
<svg version="1.1" xmlns="http://www.w3.org/2000/svg" width="70" height="70">
<path d="M0 0 C1.17054932 0.01885254 1.17054932 0.01885254 2.36474609 0.03808594 C42.80540137 0.80540137 42.80540137 0.80540137 52 10 C52.375 12.75 52.375 12.75 52 16 C50 18.375 50 18.375 47 21 C40.96780945 26.84289587 35.13412167 32.85487134 30.0625 39.5625 C28.23842587 41.71822397 26.45773212 43.37165392 24.3125 45.1875 C18.57668073 50.08706898 13.59643307 55.72157701 8.91796875 61.62890625 C5.92834167 65.32484034 3.072303 68.77474967 -1.875 69.3125 C-2.57625 69.209375 -3.2775 69.10625 -4 69 C-6.45441259 62.14294591 -8.07558318 55.36524777 -9.4453125 48.21875 C-9.66065643 47.12405396 -9.87600037 46.02935791 -10.09786987 44.90148926 C-10.77915955 41.43539048 -11.45272896 37.96785836 -12.125 34.5 C-12.80514965 31.00373323 -13.48702066 27.50783659 -14.17355347 24.01281738 C-14.59927159 21.84455359 -15.02118831 19.67553939 -15.43899536 17.5057373 C-15.62944427 16.53382446 -15.81989319 15.56191162 -16.01611328 14.56054688 C-16.18249298 13.7016687 -16.34887268 12.84279053 -16.52029419 11.95788574 C-16.818527 10.00863293 -16.818527 10.00863293 -18 9 C-18.14115161 6.32941149 -18.04247107 3.67567762 -18 1 C-11.99983628 -0.36960259 -6.11784897 -0.13302748 0 0 Z " fill="#F49737" transform="translate(18,0)"/>
<path d="M0 0 C1.17054932 0.01885254 1.17054932 0.01885254 2.36474609 0.03808594 C42.80540137 0.80540137 42.80540137 0.80540137 52 10 C52.30867281 13.47256915 52.38701339 15.3872288 50.5 18.375 C50.005 18.91125 49.51 19.4475 49 20 C44.59790099 18.5632038 40.23268823 17.10844575 35.9375 15.375 C33.24673735 14.34460875 30.80113884 13.75139887 27.9375 13.4375 C24 13 24 13 20.75927734 11.99633789 C16.75333873 10.93462627 13.02556385 10.67020324 8.9140625 10.62109375 C8.17167328 10.60409927 7.42928406 10.5871048 6.66439819 10.56959534 C4.31801606 10.51691262 1.97164895 10.47632944 -0.375 10.4375 C-2.7429906 10.39355939 -5.11084645 10.34696414 -7.47866821 10.29469299 C-8.94647984 10.26273693 -10.41441206 10.23584638 -11.88241577 10.21446228 C-16.88815612 10.11184388 -16.88815612 10.11184388 -18 9 C-18.14115161 6.32941149 -18.04247107 3.67567762 -18 1 C-11.99983628 -0.36960259 -6.11784897 -0.13302748 0 0 Z " fill="#EFAB4E" transform="translate(18,0)"/>
<path d="M0 0 C4.57151738 -0.04971951 9.14287468 -0.08586976 13.71459961 -0.10986328 C15.26736191 -0.11987381 16.82010558 -0.13348634 18.37280273 -0.15087891 C20.61446755 -0.17534652 22.85588149 -0.18653268 25.09765625 -0.1953125 C25.78336197 -0.20563507 26.46906769 -0.21595764 27.17555237 -0.22659302 C31.77675628 -0.2276459 35.63336459 0.59777154 40 2 C41.97341765 2.40416392 43.95255078 2.78192236 45.9375 3.125 C46.89527344 3.29257813 47.85304687 3.46015625 48.83984375 3.6328125 C49.90912109 3.81457031 49.90912109 3.81457031 51 4 C50.34 4.66 49.68 5.32 49 6 C49.66 6.66 50.32 7.32 51 8 C50.34 8 49.68 8 49 8 C49 10.31 49 12.62 49 15 C45.60268371 17.09065618 42.95730595 17.42098999 39 17 C37.125 15.8125 37.125 15.8125 36 14 C35.5625 11.5 35.5625 11.5 36 9 C37.32 8.01 38.64 7.02 40 6 C34.72 5.34 29.44 4.68 24 4 C24 4.66 24 5.32 24 6 C26.475 6.495 26.475 6.495 29 7 C29.33 7.99 29.66 8.98 30 10 C26.7 9.34 23.4 8.68 20 8 C20.33 10.31 20.66 12.62 21 15 C18.45208967 17.54791033 16.4510629 18.27573375 12.9375 18.4375 C9 18 9 18 6.9375 16.25 C6 14 6 14 6.125 11.9375 C7.17047231 9.6225256 7.93149645 8.49788188 10 7 C13.1875 6.3125 13.1875 6.3125 16 6 C16 5.01 16 4.02 16 3 C8.08 3.495 8.08 3.495 0 4 C0 2.68 0 1.36 0 0 Z " fill="#E85838" transform="translate(2,10)"/>
<path d="M0 0 C4.95 0 9.9 0 15 0 C15 0.99 15 1.98 15 3 C15.66 3.33 16.32 3.66 17 4 C15.741875 4.103125 14.48375 4.20625 13.1875 4.3125 C10.57569142 4.64592237 9.18329212 4.88335956 6.9375 6.3125 C5.79312312 7.98329036 5.79312312 7.98329036 6.25 10.0625 C6.97967968 12.03783784 6.97967968 12.03783784 8 14 C14.31268603 14.37552165 14.31268603 14.37552165 20 12 C19.67 9.69 19.34 7.38 19 5 C21.97 5.33 24.94 5.66 28 6 C27.67 5.34 27.34 4.68 27 4 C24.97536745 3.34786708 24.97536745 3.34786708 23 3 C23 2.34 23 1.68 23 1 C29.93 1.33 36.86 1.66 44 2 C44 2.33 44 2.66 44 3 C42.9275 3.2475 41.855 3.495 40.75 3.75 C37.00465847 4.68788218 37.00465847 4.68788218 34.9375 7.0625 C32.40140324 9.59859676 30.52002488 9.77043316 27 10 C26.34 9.67 25.68 9.34 25 9 C25.33 9.99 25.66 10.98 26 12 C25.01 12 24.02 12 23 12 C23 13.32 23 14.64 23 16 C23.66 16 24.32 16 25 16 C25 18 25 18 23.8125 19.625 C21.44439338 21.42149467 19.90102749 21.23521845 17 21 C17.66 19.68 18.32 18.36 19 17 C14.05 17.495 14.05 17.495 9 18 C9.33 19.98 9.66 21.96 10 24 C8.35 24 6.7 24 5 24 C4.67 24.66 4.34 25.32 4 26 C3.32364936 22.79363027 2.66067552 19.58463311 2 16.375 C1.80921875 15.47136719 1.6184375 14.56773438 1.421875 13.63671875 C1.24140625 12.75371094 1.0609375 11.87070312 0.875 10.9609375 C0.62363281 9.75123291 0.62363281 9.75123291 0.3671875 8.51708984 C0 6 0 6 0 0 Z " fill="#F7AC4A" transform="translate(3,13)"/>
<path d="M0 0 C6.3935865 -0.202971 12.59028761 0.16503907 18.9375 0.875 C19.68314209 0.95347168 20.42878418 1.03194336 21.19702148 1.11279297 C24.81884044 1.54277307 26.91508766 1.94339177 30 4 C29.01 4.495 29.01 4.495 28 5 C28.66 5.66 29.32 6.32 30 7 C29.34 7 28.68 7 28 7 C28 9.31 28 11.62 28 14 C24.60268371 16.09065618 21.95730595 16.42098999 18 16 C16.125 14.8125 16.125 14.8125 15 13 C14.5625 10.5 14.5625 10.5 15 8 C17.02734375 6.34375 17.02734375 6.34375 19 5 C18.04738281 4.87882813 17.09476563 4.75765625 16.11328125 4.6328125 C14.85902344 4.46523437 13.60476562 4.29765625 12.3125 4.125 C11.07113281 3.96257813 9.82976563 3.80015625 8.55078125 3.6328125 C5.42204705 3.07521631 2.87851898 2.30991877 0 1 C0 0.67 0 0.34 0 0 Z " fill="#E64832" transform="translate(23,11)"/>
<path d="M0 0 C5.82271337 -0.59720137 9.9209404 1.471757 15 4 C13.62001017 7.07367159 12.01432115 9.27563276 9.69921875 11.71484375 C9.05146484 12.40126953 8.40371094 13.08769531 7.73632812 13.79492188 C7.06021484 14.50197266 6.38410156 15.20902344 5.6875 15.9375 C5.02298828 16.64068359 4.35847656 17.34386719 3.67382812 18.06835938 C-0.44321558 22.41344902 -4.61057397 26.697992 -8.921875 30.8515625 C-12.76349304 34.57826035 -16.22380594 38.43883505 -19.5625 42.625 C-28.49594772 53.68033375 -28.49594772 53.68033375 -33.9375 54.375 C-34.9584375 54.189375 -34.9584375 54.189375 -36 54 C-36 53.01 -36 52.02 -36 51 C-35.2575 50.91234375 -34.515 50.8246875 -33.75 50.734375 C-30.47892928 49.86085043 -29.28953146 48.70570713 -27 46.25 C-26.360625 45.57453125 -25.72125 44.8990625 -25.0625 44.203125 C-24.381875 43.47609375 -23.70125 42.7490625 -23 42 C-22.21109375 41.21625 -21.4221875 40.4325 -20.609375 39.625 C-17.73908125 36.73751886 -14.99314875 33.75733356 -12.25 30.75 C-7.95999503 26.06873283 -3.56643996 21.53177417 0.95703125 17.07421875 C3.65906126 14.3308575 6.1822989 11.45398462 8.6875 8.53125 C9.43125463 7.66353626 10.1918855 6.8081145 11 6 C10.28972656 5.73445313 9.57945313 5.46890625 8.84765625 5.1953125 C7.92855469 4.84210937 7.00945313 4.48890625 6.0625 4.125 C5.14597656 3.77695312 4.22945312 3.42890625 3.28515625 3.0703125 C1 2 1 2 0 0 Z " fill="#CA5F18" transform="translate(50,15)"/>
<path d="M0 0 C2.56249288 1.94162456 2.94301291 2.70240077 3.5625 5.9375 C3 9 3 9 0.4375 11.375 C-3.46214101 13.21846666 -5.73905467 13.55234476 -10 13 C-12.4375 11.875 -12.4375 11.875 -14 10 C-14.59713581 6.49182714 -14.41142544 4.71064394 -12.625 1.625 C-8.67739518 -0.81875537 -4.52917501 -0.8392962 0 0 Z " fill="#E33F31" transform="translate(38,30)"/>
<path d="M0 0 C6.93 0.33 13.86 0.66 21 1 C21 1.33 21 1.66 21 2 C19.9275 2.2475 18.855 2.495 17.75 2.75 C14.00465847 3.68788218 14.00465847 3.68788218 11.9375 6.0625 C9.40140324 8.59859676 7.52002488 8.77043316 4 9 C3.34 8.67 2.68 8.34 2 8 C2.33 8.99 2.66 9.98 3 11 C2.01 11 1.02 11 0 11 C0 12.32 0 13.64 0 15 C0.66 15 1.32 15 2 15 C2 17 2 17 0.8125 18.625 C-1.55560662 20.42149467 -3.09897251 20.23521845 -6 20 C-5.34 18.68 -4.68 17.36 -4 16 C-5.65 16.33 -7.3 16.66 -9 17 C-9 16.34 -9 15.68 -9 15 C-10.32 14.67 -11.64 14.34 -13 14 C-11.906875 13.690625 -10.81375 13.38125 -9.6875 13.0625 C-7.44592006 12.41662103 -5.2130649 11.7376883 -3 11 C-3.33 8.69 -3.66 6.38 -4 4 C-1.03 4.33 1.94 4.66 5 5 C4.67 4.34 4.34 3.68 4 3 C1.97536745 2.34786708 1.97536745 2.34786708 0 2 C0 1.34 0 0.68 0 0 Z " fill="#F8A03E" transform="translate(26,14)"/>
<path d="M0 0 C8.02638522 -0.61741425 8.02638522 -0.61741425 11.5625 1.625 C13.46543651 4.76898205 13.6646293 6.38146271 13 10 C10.4213422 13.41292944 8.86470646 14.78790219 4.6875 15.8125 C3.800625 15.874375 2.91375 15.93625 2 16 C0.80911014 10.61972975 -0.2919519 5.54708616 0 0 Z " fill="#E13D2E" transform="translate(8,38)"/>
<path d="M0 0 C4.11574371 0.4748935 7.36383344 1.0210244 11 3 C10.57589844 3.4125 10.15179688 3.825 9.71484375 4.25 C5.24761277 8.64850435 1.0721472 13.23472137 -3 18 C-4.65 17.67 -6.3 17.34 -8 17 C-6.68 16.67 -5.36 16.34 -4 16 C-4.33 15.01 -4.66 14.02 -5 13 C-8.50294871 11.28432339 -8.50294871 11.28432339 -12 10 C-9.60236815 7.60236815 -8.66726502 7.65719414 -5.375 7.375 C-4.55773438 7.30023437 -3.74046875 7.22546875 -2.8984375 7.1484375 C-2.27195312 7.09945313 -1.64546875 7.05046875 -1 7 C-0.67 4.69 -0.34 2.38 0 0 Z " fill="#FA9831" transform="translate(51,18)"/>
<path d="M0 0 C2.4375 1.1875 2.4375 1.1875 4 3 C4.5 5.5 4.5 5.5 4 8 C2.21523753 10.15658799 0.81294456 10.86587233 -1.94140625 11.3203125 C-5.33406309 11.5077521 -7.42630405 11.48677232 -10.0625 9.25 C-11 7 -11 7 -10.875 4.9375 C-8.48111139 -0.36325334 -5.66548054 -0.59636637 0 0 Z " fill="#CC281B" transform="translate(19,17)"/>
<path d="M0 0 C0.66 1.65 1.32 3.3 2 5 C-0.97 5.66 -3.94 6.32 -7 7 C-7 7.66 -7 8.32 -7 9 C-1.555 8.505 -1.555 8.505 4 8 C2.01150718 11.97698564 0.42339678 14.21351425 -3 17 C-4.65 16.67 -6.3 16.34 -8 16 C-8.99 12.04 -9.98 8.08 -11 4 C-9.88625 3.525625 -8.7725 3.05125 -7.625 2.5625 C-1.68 0 -1.68 0 0 0 Z " fill="#F8A03A" transform="translate(21,50)"/>
<path d="M0 0 C1.20628008 2.33214148 2.1654738 4.49642139 3 7 C4.62948064 8.22445284 4.62948064 8.22445284 6.5625 9.1875 C8.2640625 10.0846875 8.2640625 10.0846875 10 11 C10 11.99 10 12.98 10 14 C8.35 14 6.7 14 5 14 C5 13.01 5 12.02 5 11 C4.01 11.33 3.02 11.66 2 12 C1.67 11.67 1.34 11.34 1 11 C-0.64107242 10.79160985 -2.28856293 10.63248275 -3.9375 10.5 C-8.78044597 10.10977702 -8.78044597 10.10977702 -11 9 C-11 7.68 -11 6.36 -11 5 C-10.34 4.67 -9.68 4.34 -9 4 C-9 3.34 -9 2.68 -9 2 C-6.94921875 1.77213542 -4.8984375 1.54427083 -2.84765625 1.31640625 C-0.98859771 1.18113386 -0.98859771 1.18113386 0 0 Z " fill="#F39637" transform="translate(37,20)"/>
<path d="M0 0 C1.8125 1.1875 1.8125 1.1875 3 3 C3.25 5.625 3.25 5.625 3 8 C2 9 2 9 -0.5625 9.0625 C-1.366875 9.041875 -2.17125 9.02125 -3 9 C-3 8.34 -3 7.68 -3 7 C-4.98 7.33 -6.96 7.66 -9 8 C-9.25 5.6875 -9.25 5.6875 -9 3 C-6.2535647 0.05012505 -3.9597373 -0.60919035 0 0 Z " fill="#D72B23" transform="translate(47,16)"/>
<path d="M0 0 C0.66 0 1.32 0 2 0 C0.36672452 4.00632868 -2.44284322 6.84716108 -5.375 9.9375 C-8.74699203 13.52136853 -11.92899124 17.14978006 -15 21 C-17.68226155 23.77830161 -19.89785634 25.88020178 -23.875 26.3125 C-24.57625 26.209375 -25.2775 26.10625 -26 26 C-26 25.01 -26 24.02 -26 23 C-25.2575 22.91234375 -24.515 22.8246875 -23.75 22.734375 C-20.47892928 21.86085043 -19.28953146 20.70570713 -17 18.25 C-15.96359375 17.15751953 -15.96359375 17.15751953 -14.90625 16.04296875 C-14.2771875 15.36878906 -13.648125 14.69460937 -13 14 C-12.175 13.195625 -11.35 12.39125 -10.5 11.5625 C-7.44253637 8.42859978 -4.61076181 5.12312999 -1.76953125 1.79296875 C-1.18558594 1.20128906 -0.60164063 0.60960937 0 0 Z " fill="#CC6719" transform="translate(40,43)"/>
<path d="M0 0 C7.35678392 -0.36180905 7.35678392 -0.36180905 10 1.125 C11.42098605 3.78934884 11.19767261 6.03491085 11 9 C9.68 9.33 8.36 9.66 7 10 C7.33 9.01 7.66 8.02 8 7 C7.34 7 6.68 7 6 7 C5.67 6.34 5.34 5.68 5 5 C2.67843403 4.59270772 0.3431213 4.25561323 -2 4 C-1.34 2.68 -0.68 1.36 0 0 Z " fill="#D1291D" transform="translate(30,30)"/>
<path d="M0 0 C1.95803507 -0.05389087 3.91648909 -0.09274217 5.875 -0.125 C7.51082031 -0.15980469 7.51082031 -0.15980469 9.1796875 -0.1953125 C12 0 12 0 14 2 C13.34 2 12.68 2 12 2 C12 2.66 12 3.32 12 4 C13.65 4.33 15.3 4.66 17 5 C17.33 5.99 17.66 6.98 18 8 C16.22825181 7.91276622 14.45752623 7.80458345 12.6875 7.6875 C11.70136719 7.62949219 10.71523438 7.57148438 9.69921875 7.51171875 C6.73001219 6.94881563 5.7116255 6.45936633 4 4 C4 3.01 4 2.02 4 1 C2.68 0.67 1.36 0.34 0 0 Z " fill="#E78C3E" transform="translate(14,12)"/>
<path d="M0 0 C1.32 0.66 2.64 1.32 4 2 C4.36923077 7.41538462 4.36923077 7.41538462 2.5 10.375 C2.005 10.91125 1.51 11.4475 1 12 C-0.98 11.34 -2.96 10.68 -5 10 C-3.84414715 6.08788267 -2.64465038 3.1254959 0 0 Z " fill="#E99F3F" transform="translate(66,8)"/>
<path d="M0 0 C2.0625 0.4375 2.0625 0.4375 4 1 C4 5.70264718 3.14293274 6.6774711 0 10 C-3.47325181 11.1577506 -6.36067448 11.06866652 -10 11 C-10 10.34 -10 9.68 -10 9 C-6.86501708 7.14223235 -4.62528568 6.79859524 -1 7 C-1.020625 6.030625 -1.04125 5.06125 -1.0625 4.0625 C-1 1 -1 1 0 0 Z " fill="#F07C17" transform="translate(24,48)"/>
<path d="M0 0 C0.33 0.66 0.66 1.32 1 2 C4.465 1.505 4.465 1.505 8 1 C8.12375 1.804375 8.2475 2.60875 8.375 3.4375 C8.58125 4.283125 8.7875 5.12875 9 6 C9.66 6.33 10.32 6.66 11 7 C10 8 10 8 6.125 8.3125 C2.31182476 8.26457859 2.31182476 8.26457859 -0.0625 6.25 C-1.14715729 3.6468225 -1.01560704 2.58518155 0 0 Z " fill="#E64536" transform="translate(9,20)"/>
<path d="M0 0 C2.97 0.495 2.97 0.495 6 1 C5.34 1.66 4.68 2.32 4 3 C4.66 3.66 5.32 4.32 6 5 C5.34 5 4.68 5 4 5 C4 7.31 4 9.62 4 12 C0.59659693 14.09440189 -2.04437178 14.25797575 -6 14 C-6.66 13.67 -7.32 13.34 -8 13 C-8 12.34 -8 11.68 -8 11 C-6.35 10.67 -4.7 10.34 -3 10 C-3 10.66 -3 11.32 -3 12 C-1.35 11.67 0.3 11.34 2 11 C2.20395079 7.32888586 1.76683472 5.20238793 0 2 C0 1.34 0 0.68 0 0 Z " fill="#ED772F" transform="translate(47,13)"/>
<path d="M0 0 C3.63 0 7.26 0 11 0 C11 1.66666667 11 3.33333333 11 5 C9.35492782 5.19406478 7.70890406 5.38007935 6.0625 5.5625 C4.68771484 5.71912109 4.68771484 5.71912109 3.28515625 5.87890625 C2.53105469 5.91886719 1.77695313 5.95882812 1 6 C0.67 5.67 0.34 5.34 0 5 C0 3.35 0 1.7 0 0 Z " fill="#DF862D" transform="translate(11,30)"/>
<path d="M0 0 C1.43655854 -0.08131463 2.8744483 -0.13933559 4.3125 -0.1875 C5.51326172 -0.23970703 5.51326172 -0.23970703 6.73828125 -0.29296875 C9.47851584 0.06198392 10.29171079 0.89366282 12 3 C11.67 3.99 11.34 4.98 11 6 C7.7 5.34 4.4 4.68 1 4 C0.67 2.68 0.34 1.36 0 0 Z " fill="#C42116" transform="translate(8,38)"/>
<path d="M0 0 C5.82271337 -0.59720137 9.9209404 1.471757 15 4 C14.34 5.32 13.68 6.64 13 8 C12.67 7.01 12.34 6.02 12 5 C10.948125 4.896875 9.89625 4.79375 8.8125 4.6875 C5.12154134 4.02191729 3.00087519 3.18245468 0 1 C0 0.67 0 0.34 0 0 Z " fill="#D73820" transform="translate(50,15)"/>
<path d="M0 0 C0 0.99 0 1.98 0 3 C-1.65 3 -3.3 3 -5 3 C-5 2.01 -5 1.02 -5 0 C-5.99 0.33 -6.98 0.66 -8 1 C-8.33 0.67 -8.66 0.34 -9 0 C-11.32817964 -0.36760731 -13.6618385 -0.70241581 -16 -1 C-16 -1.33 -16 -1.66 -16 -2 C-9.75703309 -3.10170004 -5.56864697 -3.09369276 0 0 Z " fill="#C47731" transform="translate(47,31)"/>
<path d="M0 0 C1.98 0 3.96 0 6 0 C6 3 6 3 4.6875 4.38671875 C3.125 5.59114583 1.5625 6.79557292 0 8 C-1.32 7.34 -2.64 6.68 -4 6 C-2.68 6 -1.36 6 0 6 C-0.185625 5.38125 -0.37125 4.7625 -0.5625 4.125 C-1 2 -1 2 0 0 Z " fill="#EE8624" transform="translate(47,28)"/>
<path d="M0 0 C0.66 0.99 1.32 1.98 2 3 C0.78521149 4.18163051 -0.44752408 5.34482835 -1.6875 6.5 C-2.37199219 7.1496875 -3.05648438 7.799375 -3.76171875 8.46875 C-6.40656372 10.27813784 -7.86162389 10.3077917 -11 10 C-11 9.01 -11 8.02 -11 7 C-9.948125 6.938125 -9.948125 6.938125 -8.875 6.875 C-4.72075973 5.61066601 -2.91367285 3.18471218 0 0 Z " fill="#D77519" transform="translate(25,59)"/>
<path d="M0 0 C2.64 0.66 5.28 1.32 8 2 C6.68 3.65 5.36 5.3 4 7 C2.35 6.67 0.7 6.34 -1 6 C-0.67 4.02 -0.34 2.04 0 0 Z " fill="#F58924" transform="translate(54,18)"/>
<path d="M0 0 C0.66 0.33 1.32 0.66 2 1 C2 2.65 2 4.3 2 6 C0.35 6.33 -1.3 6.66 -3 7 C-3.185625 6.071875 -3.185625 6.071875 -3.375 5.125 C-3.87197356 2.80879168 -3.87197356 2.80879168 -6 1 C-4.7934375 1.0309375 -4.7934375 1.0309375 -3.5625 1.0625 C-1.06645115 1.29633621 -1.06645115 1.29633621 0 0 Z " fill="#D83325" transform="translate(21,19)"/>
<path d="M0 0 C3.63 0 7.26 0 11 0 C9.68 0.33 8.36 0.66 7 1 C7 1.99 7 2.98 7 4 C7.66 4.33 8.32 4.66 9 5 C8.01 5.495 8.01 5.495 7 6 C4.875 5.0625 4.875 5.0625 3 4 C3 3.34 3 2.68 3 2 C2.01 1.34 1.02 0.68 0 0 Z " fill="#F2933C" transform="translate(3,13)"/>
<path d="M0 0 C0.66 0 1.32 0 2 0 C2 2.31 2 4.62 2 7 C1.01 7.33 0.02 7.66 -1 8 C-1.66 7.34 -2.32 6.68 -3 6 C-2.01 4.02 -1.02 2.04 0 0 Z " fill="#E59234" transform="translate(66,12)"/>
<path d="M0 0 C1.65 0.33 3.3 0.66 5 1 C4.67 2.32 4.34 3.64 4 5 C2.35 4.67 0.7 4.34 -1 4 C-0.67 2.68 -0.34 1.36 0 0 Z " fill="#695A41" transform="translate(31,22)"/>
<path d="M0 0 C1.98 0.495 1.98 0.495 4 1 C4 2.32 4 3.64 4 5 C2.35 5 0.7 5 -1 5 C-0.67 3.35 -0.34 1.7 0 0 Z " fill="#6A5A41" transform="translate(24,48)"/>
<path d="M0 0 C2.375 -0.125 2.375 -0.125 5 0 C5.66 0.66 6.32 1.32 7 2 C6.625 4.125 6.625 4.125 6 6 C6 5.01 6 4.02 6 3 C3.69 3 1.38 3 -1 3 C-0.67 2.01 -0.34 1.02 0 0 Z " fill="#C71C15" transform="translate(43,17)"/>
<path d="M0 0 C0.66 0.33 1.32 0.66 2 1 C1.01 2.485 1.01 2.485 0 4 C1.32 4.33 2.64 4.66 4 5 C1.69 5.66 -0.62 6.32 -3 7 C-3.1875 4.625 -3.1875 4.625 -3 2 C-2.01 1.34 -1.02 0.68 0 0 Z " fill="#DB3929" transform="translate(28,30)"/>
<path d="M0 0 C0 0.66 0 1.32 0 2 C1.32 2.33 2.64 2.66 4 3 C3 4 3 4 0.0625 4.125 C-3 4 -3 4 -5 3 C-5 2.34 -5 1.68 -5 1 C-2 0 -2 0 0 0 Z " fill="#EA5236" transform="translate(44,23)"/>
<path d="M0 0 C1.65 0 3.3 0 5 0 C5 1.32 5 2.64 5 4 C3.125 4.625 3.125 4.625 1 5 C0.34 4.34 -0.32 3.68 -1 3 C-0.67 2.01 -0.34 1.02 0 0 Z " fill="#9E703D" transform="translate(20,14)"/>
<path d="M0 0 C3.125 -0.1875 3.125 -0.1875 6 0 C6 0.99 6 1.98 6 3 C3.36 3 0.72 3 -2 3 C-1.34 2.01 -0.68 1.02 0 0 Z " fill="#C61D16" transform="translate(30,30)"/>
<path d="M0 0 C0.33 0.66 0.66 1.32 1 2 C2.32 1.67 3.64 1.34 5 1 C5 1.99 5 2.98 5 4 C3.35 4.33 1.7 4.66 0 5 C-0.5625 3.0625 -0.5625 3.0625 -1 1 C-0.67 0.67 -0.34 0.34 0 0 Z " fill="#DF3D2D" transform="translate(9,20)"/>
<path d="M0 0 C0.99 0.66 1.98 1.32 3 2 C2.67 2.99 2.34 3.98 2 5 C0.35232753 4.71890887 -1.29313145 4.42481474 -2.9375 4.125 C-4.31228516 3.88136719 -4.31228516 3.88136719 -5.71484375 3.6328125 C-6.46894531 3.42398438 -7.22304687 3.21515625 -8 3 C-8.33 2.34 -8.66 1.68 -9 1 C-6.03 1.33 -3.06 1.66 0 2 C0 1.34 0 0.68 0 0 Z " fill="#CC251C" transform="translate(17,39)"/>
<path d="M0 0 C1.65 0 3.3 0 5 0 C4.67 1.32 4.34 2.64 4 4 C2.68 4 1.36 4 0 4 C0 2.68 0 1.36 0 0 Z " fill="#6F5C3F" transform="translate(12,32)"/>
<path d="M0 0 C1.11375 0.3403125 1.11375 0.3403125 2.25 0.6875 C2.25 1.6775 2.25 2.6675 2.25 3.6875 C1.26 3.6875 0.27 3.6875 -0.75 3.6875 C-0.75 3.0275 -0.75 2.3675 -0.75 1.6875 C-2.73 2.0175 -4.71 2.3475 -6.75 2.6875 C-4.29511132 0.41445492 -3.41240272 -0.38777304 0 0 Z " fill="#E03730" transform="translate(44.75,21.3125)"/>
<path d="M0 0 C0.33 0.99 0.66 1.98 1 3 C-0.32 4.32 -1.64 5.64 -3 7 C-3.99 6.67 -4.98 6.34 -6 6 C-4.02 4.02 -2.04 2.04 0 0 Z " fill="#D56D1B" transform="translate(61,21)"/>
<path d="M0 0 C-0.5775 0.2475 -1.155 0.495 -1.75 0.75 C-4.3002997 2.16683317 -6.01785701 3.87627537 -8 6 C-8.33 5.01 -8.66 4.02 -9 3 C-5.92807025 0.26939578 -4.09590633 -0.34132553 0 0 Z " fill="#D2321D" transform="translate(47,16)"/>
<path d="M0 0 C2.25 0.25 2.25 0.25 4 1 C3.01 2.485 3.01 2.485 2 4 C-1.125 4.1875 -1.125 4.1875 -4 4 C-2.25 1.9375 -2.25 1.9375 0 0 Z " fill="#D96C19" transform="translate(23,53)"/>
<path d="M0 0 C1.65 0.33 3.3 0.66 5 1 C5.33 1.99 5.66 2.98 6 4 C3.69 3.34 1.38 2.68 -1 2 C-0.67 1.34 -0.34 0.68 0 0 Z " fill="#EE8220" transform="translate(26,16)"/>
<path d="M0 0 C2.875 -0.125 2.875 -0.125 6 0 C6.66 0.66 7.32 1.32 8 2 C7.34 2 6.68 2 6 2 C5.67 2.66 5.34 3.32 5 4 C3.31503702 3.03114628 1.64821244 2.03013277 0 1 C0 0.67 0 0.34 0 0 Z " fill="#E0422B" transform="translate(50,15)"/>
</svg>
